<svg width="23" height="14" viewBox="0 0 23 14" fill="none" xmlns="http://www.w3.org/2000/svg">
<path d="M8.16992 8.83398H10.3672C10.2969 9.67188 10.0625 10.4189 9.66406 11.0752C9.26562 11.7256 8.70605 12.2383 7.98535 12.6133C7.26465 12.9883 6.38867 13.1758 5.35742 13.1758C4.56641 13.1758 3.85449 13.0352 3.22168 12.7539C2.58887 12.4668 2.04688 12.0625 1.5957 11.541C1.14453 11.0137 0.798828 10.3779 0.558594 9.63379C0.324219 8.88965 0.207031 8.05762 0.207031 7.1377V6.07422C0.207031 5.1543 0.327148 4.32227 0.567383 3.57812C0.813477 2.83398 1.16504 2.19824 1.62207 1.6709C2.0791 1.1377 2.62695 0.730469 3.26562 0.449219C3.91016 0.167969 4.63379 0.0273438 5.43652 0.0273438C6.45605 0.0273438 7.31738 0.214844 8.02051 0.589844C8.72363 0.964844 9.26855 1.4834 9.65527 2.14551C10.0479 2.80762 10.2881 3.56641 10.376 4.42188H8.17871C8.12012 3.87109 7.99121 3.39941 7.79199 3.00684C7.59863 2.61426 7.31152 2.31543 6.93066 2.11035C6.5498 1.89941 6.05176 1.79395 5.43652 1.79395C4.93262 1.79395 4.49316 1.8877 4.11816 2.0752C3.74316 2.2627 3.42969 2.53809 3.17773 2.90137C2.92578 3.26465 2.73535 3.71289 2.60645 4.24609C2.4834 4.77344 2.42188 5.37695 2.42188 6.05664V7.1377C2.42188 7.78223 2.47754 8.36816 2.58887 8.89551C2.70605 9.41699 2.88184 9.86523 3.11621 10.2402C3.35645 10.6152 3.66113 10.9053 4.03027 11.1104C4.39941 11.3154 4.8418 11.418 5.35742 11.418C5.98438 11.418 6.49121 11.3184 6.87793 11.1191C7.27051 10.9199 7.56641 10.6299 7.76562 10.249C7.9707 9.8623 8.10547 9.39062 8.16992 8.83398ZM16.7568 10.6621L20.123 0.203125H22.5576L17.9697 13H16.3262L16.7568 10.6621ZM13.6455 0.203125L16.9854 10.6621L17.4424 13H15.79L11.2197 0.203125H13.6455Z" fill="white"/>
</svg>
